<svg xmlns="http://www.w3.org/2000/svg" width="128" height="128" viewBox="0 0 128 128">
  <defs><clipPath id="a"><rect x="10" y="18" width="108" height="84" rx="10"/></clipPath></defs>
  <rect x="10" y="24" width="108" height="84" rx="10" fill="#26a269"/>
  <g clip-path="url(#a)">
    <rect x="10" y="18" width="36" height="84" fill="#57e389"/>
    <rect x="46" y="18" width="36" height="84" fill="#8ff0a4"/>
    <rect x="82" y="18" width="36" height="84" fill="#57e389"/>
    <path d="M6 42c16-8 24 10 42 2s22-22 40-28" fill="none" stroke="#62a0ea" stroke-width="8" stroke-linecap="round"/>
    <path d="M24 86c14-18 28 6 42-14s22-12 34-30" fill="none" stroke="#fff" stroke-width="12" stroke-linecap="round"/>
    <path d="M24 86c14-18 28 6 42-14s22-12 34-30" fill="none" stroke="#e01b24" stroke-width="6" stroke-linecap="round"/>
  </g>
  <circle cx="24" cy="86" r="6" fill="#fff" stroke="#e01b24" stroke-width="3"/>
  <circle cx="94" cy="94" r="22" fill="#1a5fb4"/>
  <circle cx="94" cy="89" r="22" fill="#3584e4"/>
  <path d="M88 79v20l17-10z" fill="#fff" stroke="#fff" stroke-width="3" stroke-linejoin="round"/>
</svg>
